<svg width="297" height="59" viewBox="0 0 297 59" fill="none" xmlns="http://www.w3.org/2000/svg">
<path d="M29.5 0L36.1232 20.384H57.5562L40.2165 32.982L46.8397 53.366L29.5 40.768L12.1603 53.366L18.7835 32.982L1.44383 20.384H22.8768L29.5 0Z" fill="#038B74"/>
<path d="M148.5 0L155.123 20.384H176.556L159.217 32.982L165.84 53.366L148.5 40.768L131.16 53.366L137.783 32.982L120.444 20.384H141.877L148.5 0Z" fill="#038B74"/>
<path d="M89 0L95.7354 20.384H117.532L99.8981 32.982L106.634 53.366L89 40.768L71.3664 53.366L78.1019 32.982L60.4683 20.384H82.2646L89 0Z" fill="#038B74"/>
<path d="M208 0L214.735 20.384H236.532L218.898 32.982L225.634 53.366L208 40.768L190.366 53.366L197.102 32.982L179.468 20.384H201.265L208 0Z" fill="#038B74"/>
<path d="M267.5 0L274.123 20.384H295.556L278.217 32.982L284.84 53.366L267.5 40.768L250.16 53.366L256.783 32.982L239.444 20.384H260.877L267.5 0Z" fill="#038B74"/>
</svg>
