<svg width="413" height="101" viewBox="0 0 413 101" fill="none" xmlns="http://www.w3.org/2000/svg">
<path d="M108.275 35.5576H149.991V43.2751H133.588V86.6589H124.568V43.2751H108.238V35.5576H108.275ZM148.209 49.6583H155.919V56.7987H156.065C156.319 55.789 156.792 54.8153 157.483 53.8776C158.174 52.94 159.011 52.0384 159.993 51.2811C160.975 50.4877 162.066 49.8746 163.266 49.3698C164.466 48.9009 165.703 48.6485 166.94 48.6485C167.885 48.6485 168.576 48.6846 168.94 48.7206C169.304 48.7567 169.667 48.8288 170.067 48.8649V56.7266C169.485 56.6184 168.904 56.5463 168.285 56.4742C167.667 56.402 167.085 56.366 166.503 56.366C165.121 56.366 163.812 56.6545 162.575 57.1954C161.339 57.7364 160.284 58.5658 159.375 59.6117C158.465 60.6935 157.738 61.9918 157.192 63.5786C156.647 65.1654 156.392 66.9685 156.392 69.0241V86.6229H148.173V49.6583H148.209ZM207.856 86.6589H199.782V81.5019H199.636C198.618 83.3772 197.127 84.8558 195.126 85.9737C193.126 87.0917 191.089 87.6687 189.016 87.6687C184.106 87.6687 180.542 86.4786 178.36 84.0624C176.178 81.6462 175.086 78.0038 175.086 73.1353V49.6583H183.306V72.3419C183.306 75.5876 183.924 77.8956 185.197 79.2299C186.434 80.5643 188.216 81.2495 190.471 81.2495C192.217 81.2495 193.635 80.997 194.799 80.4561C195.963 79.9151 196.908 79.2299 197.599 78.3284C198.327 77.4629 198.836 76.381 199.163 75.1548C199.491 73.9287 199.636 72.5943 199.636 71.1518V49.6943H207.856V86.6589ZM221.858 74.7942C222.113 77.1743 223.022 78.8332 224.586 79.8069C226.186 80.7446 228.078 81.2495 230.296 81.2495C231.06 81.2495 231.933 81.1773 232.915 81.0692C233.897 80.961 234.842 80.7085 235.679 80.384C236.552 80.0594 237.243 79.5545 237.825 78.9054C238.37 78.2562 238.625 77.4268 238.589 76.381C238.552 75.3351 238.152 74.4696 237.425 73.8205C236.697 73.1353 235.788 72.6304 234.661 72.1976C233.533 71.801 232.26 71.4403 230.805 71.1518C229.351 70.8633 227.896 70.5388 226.405 70.2142C224.877 69.8896 223.386 69.4569 221.967 68.988C220.549 68.5192 219.276 67.8701 218.149 67.0406C217.021 66.2472 216.112 65.2014 215.457 63.9392C214.766 62.677 214.439 61.1263 214.439 59.251C214.439 57.2315 214.948 55.5726 215.93 54.2022C216.912 52.8318 218.185 51.7499 219.676 50.9205C221.204 50.091 222.877 49.514 224.732 49.1534C226.586 48.8288 228.369 48.6485 230.042 48.6485C231.969 48.6485 233.824 48.8649 235.57 49.2616C237.316 49.6583 238.916 50.3074 240.334 51.245C241.753 52.1466 242.917 53.3367 243.862 54.7792C244.808 56.2217 245.39 57.9888 245.644 60.0444H237.061C236.661 58.097 235.788 56.7627 234.37 56.1135C232.951 55.4283 231.315 55.1038 229.496 55.1038C228.914 55.1038 228.223 55.1398 227.423 55.248C226.623 55.3562 225.895 55.5365 225.168 55.789C224.477 56.0414 223.895 56.4381 223.386 56.943C222.913 57.4479 222.658 58.097 222.658 58.9265C222.658 59.9362 223.022 60.7296 223.713 61.3427C224.404 61.9558 225.313 62.4606 226.441 62.8934C227.568 63.2901 228.841 63.6507 230.296 63.9392C231.751 64.2277 233.242 64.5523 234.77 64.8769C236.261 65.2014 237.716 65.6342 239.17 66.103C240.625 66.5718 241.898 67.221 243.026 68.0504C244.153 68.8799 245.062 69.8896 245.753 71.1158C246.444 72.3419 246.808 73.8926 246.808 75.6958C246.808 77.8956 246.299 79.7348 245.281 81.2855C244.262 82.8002 242.953 84.0624 241.353 85C239.752 85.9377 237.934 86.6589 235.97 87.0917C234.006 87.5244 232.042 87.7408 230.114 87.7408C227.75 87.7408 225.568 87.4884 223.568 86.9474C221.567 86.4065 219.822 85.6131 218.367 84.5673C216.912 83.4854 215.748 82.151 214.912 80.5643C214.075 78.9775 213.639 77.0662 213.566 74.8663H221.858V74.7942ZM248.99 49.6583H255.21V38.5508H263.429V49.6583H270.849V55.7529H263.429V75.5154C263.429 76.381 263.466 77.1022 263.538 77.7514C263.611 78.3644 263.793 78.9054 264.048 79.3381C264.302 79.7709 264.702 80.0955 265.248 80.3118C265.793 80.5282 266.484 80.6364 267.43 80.6364C268.012 80.6364 268.594 80.6364 269.176 80.6003C269.758 80.5643 270.34 80.4921 270.922 80.3479V86.6589C270.012 86.7671 269.103 86.8392 268.267 86.9474C267.394 87.0556 266.521 87.0917 265.611 87.0917C263.429 87.0917 261.684 86.8753 260.374 86.4786C259.065 86.0819 258.01 85.4688 257.283 84.6755C256.519 83.8821 256.046 82.9084 255.755 81.7183C255.501 80.5282 255.319 79.1578 255.282 77.6432V55.825H249.063V49.6583H248.99ZM276.668 49.6583H284.451V54.671H284.597C285.761 52.5072 287.361 50.9926 289.434 50.055C291.507 49.1173 293.726 48.6485 296.162 48.6485C299.108 48.6485 301.654 49.1534 303.836 50.1992C306.019 51.209 307.837 52.6154 309.292 54.4186C310.747 56.2217 311.801 58.3134 312.529 60.6935C313.256 63.0737 313.62 65.6342 313.62 68.3389C313.62 70.8273 313.293 73.2435 312.638 75.5515C311.983 77.8956 311.001 79.9512 309.692 81.7544C308.383 83.5575 306.71 84.964 304.673 86.0459C302.636 87.1277 300.272 87.6687 297.508 87.6687C296.308 87.6687 295.108 87.5605 293.907 87.3441C292.707 87.1277 291.543 86.7671 290.452 86.2983C289.361 85.8295 288.306 85.2164 287.397 84.4591C286.452 83.7018 285.688 82.8362 285.033 81.8625H284.888V100.327H276.668V49.6583ZM305.4 68.1947C305.4 66.5358 305.182 64.9129 304.746 63.3261C304.309 61.7394 303.655 60.369 302.782 59.1428C301.909 57.9167 300.818 56.943 299.545 56.2217C298.235 55.5005 296.744 55.1038 295.071 55.1038C291.616 55.1038 288.997 56.2939 287.252 58.674C285.506 61.0542 284.633 64.2277 284.633 68.1947C284.633 70.0699 284.851 71.801 285.324 73.3877C285.797 74.9745 286.452 76.3449 287.397 77.4989C288.306 78.6529 289.398 79.5545 290.67 80.2036C291.943 80.8888 293.435 81.2134 295.108 81.2134C296.999 81.2134 298.563 80.8167 299.872 80.0594C301.181 79.3021 302.236 78.2923 303.073 77.1022C303.909 75.8761 304.527 74.5057 304.891 72.955C305.218 71.4043 305.4 69.8175 305.4 68.1947ZM319.912 35.5576H328.132V43.2751H319.912V35.5576ZM319.912 49.6583H328.132V86.6589H319.912V49.6583ZM335.478 35.5576H343.698V86.6589H335.478V35.5576ZM368.902 87.6687C365.92 87.6687 363.265 87.1638 360.937 86.1901C358.61 85.2164 356.646 83.846 355.009 82.151C353.409 80.42 352.172 78.3644 351.336 75.9843C350.499 73.6041 350.063 70.9715 350.063 68.1225C350.063 65.3096 350.499 62.7131 351.336 60.3329C352.172 57.9528 353.409 55.8972 355.009 54.1661C356.609 52.4351 358.61 51.1008 360.937 50.1271C363.265 49.1534 365.92 48.6485 368.902 48.6485C371.885 48.6485 374.54 49.1534 376.867 50.1271C379.195 51.1008 381.159 52.4712 382.796 54.1661C384.396 55.8972 385.633 57.9528 386.469 60.3329C387.306 62.7131 387.742 65.3096 387.742 68.1225C387.742 70.9715 387.306 73.6041 386.469 75.9843C385.633 78.3644 384.396 80.42 382.796 82.151C381.196 83.8821 379.195 85.2164 376.867 86.1901C374.54 87.1638 371.885 87.6687 368.902 87.6687ZM368.902 81.2134C370.721 81.2134 372.321 80.8167 373.667 80.0594C375.013 79.3021 376.104 78.2923 376.977 77.0662C377.849 75.84 378.468 74.4336 378.904 72.8829C379.304 71.3321 379.523 69.7454 379.523 68.1225C379.523 66.5358 379.304 64.985 378.904 63.3983C378.504 61.8115 377.849 60.4411 376.977 59.215C376.104 57.9888 375.013 57.0151 373.667 56.2578C372.321 55.5005 370.721 55.1038 368.902 55.1038C367.084 55.1038 365.484 55.5005 364.138 56.2578C362.792 57.0151 361.701 58.0249 360.828 59.215C359.955 60.4411 359.337 61.8115 358.901 63.3983C358.501 64.985 358.282 66.5358 358.282 68.1225C358.282 69.7454 358.501 71.3321 358.901 72.8829C359.301 74.4336 359.955 75.84 360.828 77.0662C361.701 78.2923 362.792 79.3021 364.138 80.0594C365.484 80.8528 367.084 81.2134 368.902 81.2134ZM390.143 49.6583H396.362V38.5508H404.581V49.6583H412.001V55.7529H404.581V75.5154C404.581 76.381 404.618 77.1022 404.691 77.7514C404.763 78.3644 404.945 78.9054 405.2 79.3381C405.454 79.7709 405.854 80.0955 406.4 80.3118C406.946 80.5282 407.637 80.6364 408.582 80.6364C409.164 80.6364 409.746 80.6364 410.328 80.6003C410.91 80.5643 411.492 80.4921 412.074 80.3479V86.6589C411.164 86.7671 410.255 86.8392 409.419 86.9474C408.546 87.0556 407.673 87.0917 406.764 87.0917C404.581 87.0917 402.836 86.8753 401.526 86.4786C400.217 86.0819 399.162 85.4688 398.435 84.6755C397.671 83.8821 397.198 82.9084 396.907 81.7183C396.653 80.5282 396.471 79.1578 396.435 77.6432V55.825H390.215V49.6583H390.143Z" fill="#FBFBFB"/>
<path d="M98.6719 35.5581H60.9926L49.3542 0L37.6794 35.5581L0 35.5221L30.5145 57.5205L18.8397 93.0426L49.3542 71.0802L79.8323 93.0426L68.1938 57.5205L98.6719 35.5581Z" fill="#00B67A"/>
<path d="M70.8099 65.5626L68.1913 57.5205L49.3516 71.0802L70.8099 65.5626Z" fill="#005128"/>
</svg>
