<svg width="149" height="58" viewBox="0 0 149 58" fill="none" xmlns="http://www.w3.org/2000/svg">
<g clip-path="url(#clip0_486_920)">
<path d="M46.5426 6.04179C20.0983 -13.689 -13.5149 19.2211 5.64784 45.9609C7.44108 48.3937 9.62031 50.4209 11.9523 51.7617C14.996 53.512 18.297 54.0901 21.3568 52.8778C26.0611 51.1837 28.7389 45.0296 30.6005 40.4773C32.2248 36.8362 34.1829 33.2474 37.9785 31.6978C38.3363 31.6095 38.666 31.4007 38.859 31.6296C38.9113 31.8383 38.1916 32.4244 37.5563 32.9623C36.9452 33.4962 36.3983 34.0864 35.8636 34.6966C33.805 37.0851 31.8348 40.1923 31.678 43.3998C31.5534 45.0617 32.3776 46.6916 34.1507 46.4226C41.4564 44.8329 44.7695 33.5364 49.719 30.08C50.491 29.4216 53.3618 28.6629 51.0659 27.852C45.0751 25.6923 37.9624 26.0857 33.037 30.365C31.5373 31.3967 32.1082 28.9359 32.0318 28.121C31.9755 23.8175 29.7481 19.2973 26.8853 15.8971C24.6096 13.2878 19.2138 10.4576 15.6635 10.9394C15.2413 11.1762 15.567 11.8908 15.7238 12.2842C16.7611 14.4841 16.2907 16.9971 15.7961 19.2853C15.1971 22.2037 14.1798 25.0459 13.5687 27.9684C13.1947 30.1001 13.2993 32.2277 13.3194 34.3834C13.3395 35.1462 13.432 35.9651 13.6531 36.6797C14.7789 40.7422 18.6468 45.1862 23.0656 42.4323C26.1937 39.1606 25.4861 33.8696 24.9071 29.7588C23.2425 24.0102 24.5412 24.8091 26.1093 29.6464C26.9738 32.4003 26.7607 35.3067 26.9537 38.1008C27.4603 44.4957 22.4866 52.0267 15.9932 50.433C13.9024 49.9633 11.9644 48.5904 10.4486 47.1251C2.82529 39.7507 1.24916 27.5509 5.57948 18.0689C7.81903 13.1553 12.5434 8.20555 17.4527 5.9615C25.9203 1.56975 36.4225 2.40073 44.102 7.90447C56.3009 16.4029 58.8179 34.7688 48.7018 45.8566C43.0325 52.5847 34.4443 55.3787 25.9042 55.467C24.6096 55.4871 23.2747 55.3948 21.9921 55.19C21.6021 55.1941 17.7743 54.2868 19.057 55.2743C21.2885 56.4064 23.7692 57.2735 26.2581 57.6147C54.8736 61.3722 69.4567 23.1351 46.607 6.08996L46.5426 6.04179Z" fill="white"/>
<path d="M13.5211 36.3907L13.3281 35.8086C13.3281 35.8407 13.4849 36.0053 13.5211 36.3907Z" fill="white"/>
<path d="M114.227 16.9969C117.597 20.2767 116.68 27.1413 112.092 28.8354C105.945 31.1075 101.092 25.114 103.287 19.265C104.952 14.8372 110.878 13.7332 114.227 16.9969Z" fill="white"/>
<path d="M114.355 43.8573L113.656 46.1977H115.027L114.355 43.8573ZM114.355 43.8573L113.656 46.1977H115.027L114.355 43.8573ZM148.99 0.192691L42.9553 0C42.8507 0.513843 43.0839 0.333195 43.3413 0.481728C55.7814 7.73976 62.8458 19.0443 60.6666 33.9297C59.195 44.0018 52.207 53.3875 42.9553 57.6026V57.992L120.443 58C131.938 57.5143 142.508 50.6055 146.847 39.8911C146.907 39.7425 147 39.606 147.04 39.5017C148.17 36.527 148.664 33.2272 148.998 30.0718L148.99 0.192691ZM74.5984 49.0559H72.9499L69.9464 45.3466V49.0559H67.8717V41.5089H69.488L72.5237 45.3466V41.5089H74.5984V49.0559ZM82.7765 49.0559H77.3887V41.5089H82.68V43.3153H79.4675V44.3792H82.2136V46.0572H79.4675V47.2494H82.7765V49.0559ZM91.9558 45.3868C91.9558 45.9127 91.8875 46.4024 91.7548 46.8601C91.6181 47.3177 91.409 47.7111 91.1235 48.0443C90.8421 48.3775 90.4842 48.6424 90.054 48.8311C89.6238 49.0238 89.1212 49.1202 88.5382 49.1202C87.9552 49.1202 87.4164 49.0198 86.9862 48.8151C86.56 48.6143 86.2062 48.3414 85.9288 48.0042C85.6513 47.6629 85.4503 47.2695 85.3216 46.8159C85.193 46.3663 85.1286 45.8926 85.1286 45.3868V41.5089H87.2074V45.3868C87.2074 45.6357 87.2315 45.8765 87.2797 46.1053C87.332 46.3342 87.4084 46.5389 87.517 46.7115C87.6215 46.8841 87.7582 47.0246 87.923 47.125C88.0919 47.2294 88.297 47.2816 88.5382 47.2816C88.7795 47.2816 88.9845 47.2254 89.1534 47.121C89.3263 47.0166 89.463 46.8761 89.5715 46.6995C89.6761 46.5269 89.7565 46.3261 89.8047 46.1013C89.853 45.8725 89.8771 45.6357 89.8771 45.3868V41.5089H91.9558V45.3868ZM68.121 19.5782C69.9786 9.17691 83.645 4.82932 91.22 12.1435C91.5819 12.4928 92.8203 13.7292 92.575 14.2029C91.4251 14.6766 88.5905 17.7396 87.6456 17.8761C87.0465 17.9644 86.5882 17.0853 86.1258 16.74C79.9419 12.0753 73.4525 18.1049 75.7523 24.9535C77.5496 30.2886 84.2039 30.67 87.3923 26.3706C88.1562 25.9129 88.2045 26.6315 88.5181 26.8563C89.9455 27.884 91.4653 28.7913 92.8484 29.8872C84.5858 41.9464 65.4633 34.4556 68.121 19.5782ZM100.528 43.3153H98.3528V49.0559H96.2781V43.3153H94.0949V41.5089H100.528V43.3153ZM106.957 49.0559L105.626 46.7396H104.85V49.0559H102.772V41.5089H106.245C106.611 41.5089 106.953 41.5851 107.267 41.7377C107.58 41.8902 107.846 42.0869 108.071 42.3318C108.292 42.5767 108.469 42.8577 108.598 43.1708C108.726 43.488 108.791 43.8051 108.791 44.1222C108.791 44.5638 108.694 44.9733 108.501 45.3506C108.308 45.732 108.043 46.0411 107.701 46.282L109.301 49.0559H106.957ZM115.815 49.0559L115.36 47.5786H113.346L112.9 49.0559H110.781L113.41 41.5089H115.304L117.926 49.0559H115.815ZM110.684 35.8044C91.8875 37.1573 90.0018 10.325 108.019 8.61891C127.077 6.81243 129.18 34.4676 110.684 35.8044ZM125.549 49.0559H120.045V41.5089H122.119V47.2494H125.549V49.0559ZM136.807 35.415H126.377V32.5929C126.377 32.1633 132.469 28.5022 132.919 27.061C133.172 26.2421 133.188 25.5998 132.42 25.1984C130.559 24.2229 129.328 26.7279 128.842 26.6436C128.693 26.6195 126.888 24.8772 126.59 24.5882C129.023 20.088 137.796 20.8989 136.855 26.9045C136.433 29.6182 133.522 30.5295 131.837 32.3039H136.807C137.249 32.3039 137.249 35.415 136.807 35.415ZM113.656 46.1977H115.027L114.355 43.8573L113.656 46.1977ZM106.105 43.3153H104.85V44.9291H106.157C106.286 44.9291 106.406 44.8609 106.515 44.7164C106.623 44.5759 106.68 44.3792 106.68 44.1222C106.68 43.8653 106.615 43.6606 106.491 43.5241C106.362 43.3836 106.233 43.3153 106.105 43.3153Z" fill="white"/>
</g>
<defs>
<clipPath id="clip0_486_920">
<rect width="149" height="58" fill="white"/>
</clipPath>
</defs>
</svg>
