<svg width="222" height="68" viewBox="0 0 222 68" fill="none" xmlns="http://www.w3.org/2000/svg">
<g clip-path="url(#clip0_486_864)">
<path d="M33.0452 40.8766C29.9232 44.8288 24.5108 47.6337 18.8905 47.6337C8.01641 47.6337 0 39.6835 0 28.925C0 18.1665 7.9107 10.2129 18.4219 10.2129C23.6264 10.2129 28.5701 12.3456 31.745 15.8262L28.2601 19.2575C26.1247 16.9172 22.3261 15.1505 18.4254 15.1505C10.9834 15.1505 5.20802 21.077 5.20802 28.925C5.20802 36.7731 11.1419 42.6996 18.8941 42.6996C22.7455 42.6996 25.9203 41.2426 27.8443 39.3211V29.9667H17.4353V25.0292H33.0488V40.8801L33.0452 40.8766Z" fill="white"/>
<path d="M50.4278 22.168C57.662 22.168 63.0744 27.6264 63.0744 34.9008C63.0744 42.1752 57.662 47.6337 50.4278 47.6337C43.1937 47.6337 37.7812 42.1752 37.7812 34.9008C37.7812 27.6264 43.1937 22.168 50.4278 22.168ZM50.4278 42.9565C54.9558 42.9565 58.1306 39.3703 58.1306 34.9008C58.1306 30.4313 54.9558 26.8451 50.4278 26.8451C45.8999 26.8451 42.725 30.4313 42.725 34.9008C42.725 39.3703 45.8999 42.9565 50.4278 42.9565Z" fill="white"/>
<path d="M69.5657 43.5304C68.0575 41.6581 67.3281 39.2685 67.3281 35.1615V22.6855H72.2719V35.9392C72.2719 38.4344 72.7934 39.7858 73.6778 40.824C74.7702 42.1227 76.5391 42.9567 78.4137 42.9567C81.4335 42.9567 83.8789 41.1373 85.2814 39.4761V22.6855H90.2251V47.113H85.4364V44.8783C84.3441 45.9165 81.6379 47.6339 78.2551 47.6339C74.8724 47.6339 71.5953 46.0748 69.5621 43.5269L69.5657 43.5304Z" fill="white"/>
<path d="M115.434 44.8816C113.457 46.6482 110.8 47.6372 107.886 47.6372C105.701 47.6372 103.411 47.0143 101.744 46.0253C98.0476 43.8434 95.5 39.7891 95.5 34.9008C95.5 30.0125 98.1005 25.909 101.797 23.727C103.464 22.7416 105.493 22.168 107.78 22.168C110.433 22.168 113.087 22.9985 115.275 24.818V10.2129H120.219V47.1163H115.43V44.8816H115.434ZM115.279 30.3257C113.77 28.3514 111.272 26.8451 108.305 26.8451C103.569 26.8451 100.447 30.6389 100.447 34.9008C100.447 39.1627 103.83 42.9565 108.566 42.9565C111.064 42.9565 113.612 41.7107 115.279 39.4759V30.3292V30.3257Z" fill="white"/>
<path d="M145.434 44.8816C143.457 46.6482 140.8 47.6372 137.886 47.6372C135.701 47.6372 133.411 47.0143 131.744 46.0253C128.048 43.8434 125.5 39.7891 125.5 34.9008C125.5 30.0125 128.1 25.909 131.797 23.727C133.464 22.7416 135.493 22.168 137.78 22.168C140.539 22.168 143.192 22.9985 145.43 24.9236V22.6888H150.219V47.1163H145.43V44.8816H145.434ZM145.275 30.3257C143.767 28.3514 141.269 26.8451 138.302 26.8451C133.566 26.8451 130.444 30.6389 130.444 34.9008C130.444 39.1627 133.826 42.9565 138.562 42.9565C141.061 42.9565 143.608 41.7107 145.275 39.4759V30.3292V30.3257Z" fill="white"/>
<path d="M201.661 40.2076C200.029 35.0976 193.553 33.535 189.765 37.3394L178.492 48.661L184.426 37.364C184.958 36.354 184.06 35.1891 182.95 35.4354L170.486 38.2157L183.27 30.9378C187.77 28.3757 188.151 22.0375 183.986 18.9616L170.761 9.18848C160.793 19.6021 159.644 36.0021 168.707 47.7776C177.78 59.5638 193.965 62.6678 206.611 55.6926L201.661 40.2006V40.2076Z" fill="white"/>
<path d="M215.843 11.5963C205.836 -1.40398 187.174 -3.83934 174.161 6.15548C173.041 7.01419 172.001 7.93977 171.039 8.91814L188.844 13.722C191.205 14.359 193.214 15.9075 194.429 18.0226L195.205 19.374C195.761 20.3453 196.854 20.8803 197.967 20.7395C199.789 20.5072 201.956 20.3735 202.71 20.6339L205.402 19.7928L203.883 22.1754C203.94 22.9707 203.249 25.0225 202.551 26.7153C202.125 27.7499 202.358 28.943 203.154 29.7348L204.257 30.8364C205.987 32.5608 206.96 34.9012 206.96 37.3436L206.97 55.4996C208.147 54.831 209.292 54.0743 210.395 53.2262C223.412 43.2314 225.85 24.5931 215.843 11.5963Z" fill="white"/>
<g opacity="0.98">
<path d="M48.5211 60.3064V61.3903H45.896V64.0685H49.4338V65.1525H44.7578V57.1777H49.321V58.2617H45.8995V60.3134H48.5246L48.5211 60.3064Z" fill="white"/>
<path d="M51.9052 60.3061C52.1906 60.0316 52.7367 59.6797 53.512 59.6797C54.2872 59.6797 55.006 60.0457 55.4641 60.6264C55.8059 61.0593 55.9891 61.6047 55.9891 62.5303V65.1522H54.9038V62.474C54.9038 61.7913 54.777 61.471 54.5832 61.2317C54.333 60.9114 53.9207 60.7073 53.4767 60.7073C52.7685 60.7073 52.2575 61.0839 51.9369 61.471V65.1522H50.8516V59.7958H51.9016V60.3096L51.9052 60.3061Z" fill="white"/>
<path d="M64.8069 64.6597C64.3735 65.0468 63.7921 65.265 63.1508 65.265C62.6715 65.265 62.1712 65.1278 61.8047 64.9131C60.9942 64.4345 60.4375 63.5476 60.4375 62.4742C60.4375 61.4008 61.0083 60.5034 61.8188 60.0248C62.1853 59.8066 62.6292 59.6834 63.1296 59.6834C63.711 59.6834 64.2924 59.8664 64.7716 60.2641V57.0615H65.8569V65.1524H64.8069V64.6597ZM64.7716 61.4712C64.4404 61.0383 63.8942 60.7075 63.2424 60.7075C62.2064 60.7075 61.5193 61.5381 61.5193 62.4742C61.5193 63.4104 62.2593 64.2409 63.2987 64.2409C63.8449 64.2409 64.4052 63.9664 64.7716 63.4772V61.4712Z" fill="white"/>
<path d="M68.386 62.6996C68.4424 63.6006 69.1859 64.3185 70.1197 64.3185C70.916 64.3185 71.353 63.9314 71.6595 63.59L72.3678 64.2622C71.9696 64.776 71.205 65.2652 70.1091 65.2652C68.5446 65.2652 67.3359 64.0792 67.3359 62.4744C67.3359 60.8696 68.4318 59.6836 69.947 59.6836C71.4622 59.6836 72.5263 60.8907 72.5263 62.4744C72.5263 62.5202 72.5263 62.6011 72.5158 62.7032H68.386V62.6996ZM68.4776 61.7881H71.3988C71.2402 61.1054 70.6236 60.6268 69.9822 60.6268C69.2881 60.6268 68.6608 61.0948 68.4776 61.7881Z" fill="white"/>
<path d="M74.0078 57.0615H75.0931V65.1524H74.0078V57.0615Z" fill="white"/>
<path d="M84.0256 64.6599C83.5922 65.047 83.0108 65.2652 82.3695 65.2652C81.8903 65.2652 81.3899 65.128 81.0234 64.9133C80.213 64.4347 79.6562 63.5478 79.6562 62.4744C79.6562 61.401 80.2271 60.5036 81.0375 60.025C81.404 59.8068 81.848 59.6836 82.3484 59.6836C82.9544 59.6836 83.5358 59.8666 84.0256 60.2889V59.7997H85.0757V65.1561H84.0256V64.6634V64.6599ZM83.9904 61.4714C83.6592 61.0385 83.113 60.7077 82.4611 60.7077C81.4251 60.7077 80.738 61.5383 80.738 62.4744C80.738 63.4105 81.478 64.2411 82.5175 64.2411C83.0637 64.2411 83.6239 63.9666 83.9904 63.4774V61.4714Z" fill="white"/>
<path d="M86.1562 59.7959H87.2733L88.8589 63.4419L90.4446 59.7959H91.5616L89.236 65.1523H88.4819L86.1562 59.7959Z" fill="white"/>
<path d="M102.284 63.7834C101.6 64.6491 100.413 65.265 99.1794 65.265C96.7939 65.265 95.0391 63.523 95.0391 61.1615C95.0391 58.8001 96.7727 57.0615 99.0772 57.0615C100.219 57.0615 101.301 57.5296 101.998 58.2933L101.234 59.0464C100.765 58.5326 99.9335 58.1455 99.0772 58.1455C97.4458 58.1455 96.1807 59.4441 96.1807 61.165C96.1807 62.886 97.481 64.1846 99.1829 64.1846C100.029 64.1846 100.723 63.8643 101.146 63.4455V61.3938H98.8623V60.3098H102.284V63.7834Z" fill="white"/>
<path d="M104.223 59.7957H105.308V65.6061C105.308 66.324 105.206 66.7674 104.966 67.1123C104.579 67.6684 103.941 67.9992 103.208 67.9992C102.979 67.9992 102.718 67.964 102.57 67.9183L102.799 66.9258C102.877 66.9469 103.05 66.9716 103.198 66.9716C103.508 66.9716 103.839 66.8343 104.019 66.595C104.167 66.4014 104.223 66.1269 104.223 65.6378V59.7922V59.7957ZM104.759 57.1738C105.157 57.1738 105.477 57.4941 105.477 57.8918C105.477 58.2894 105.157 58.5991 104.759 58.5991C104.36 58.5991 104.05 58.293 104.05 57.8918C104.05 57.4906 104.36 57.1738 104.759 57.1738Z" fill="white"/>
<path d="M107.839 62.6996C107.896 63.6006 108.635 64.3185 109.573 64.3185C110.369 64.3185 110.806 63.9314 111.113 63.59L111.821 64.2622C111.419 64.776 110.658 65.2652 109.562 65.2652C107.998 65.2652 106.789 64.0792 106.789 62.4744C106.789 60.8696 107.885 59.6836 109.4 59.6836C110.915 59.6836 111.979 60.8907 111.979 62.4744C111.979 62.5202 111.979 62.6011 111.969 62.7032H107.839V62.6996ZM107.931 61.7881H110.852C110.693 61.1054 110.077 60.6268 109.439 60.6268C108.741 60.6268 108.114 61.0948 107.931 61.7881Z" fill="white"/>
<path d="M114.507 60.3061C114.792 60.0316 115.338 59.6797 116.114 59.6797C116.889 59.6797 117.608 60.0457 118.066 60.6264C118.407 61.0593 118.591 61.6047 118.591 62.5303V65.1522H117.505V62.474C117.505 61.7913 117.379 61.471 117.185 61.2317C116.935 60.9114 116.522 60.7073 116.078 60.7073C115.37 60.7073 114.859 61.0839 114.538 61.471V65.1522H113.453V59.7958H114.503V60.3096L114.507 60.3061Z" fill="white"/>
<path d="M120.467 63.7269C120.967 64.114 121.517 64.3181 122.052 64.3181C122.521 64.3181 122.986 64.0683 122.986 63.6459C122.986 63.0301 122.098 62.9949 121.309 62.7344C120.657 62.5162 120.075 62.108 120.075 61.3549C120.075 60.2041 121.101 59.6797 122.059 59.6797C122.849 59.6797 123.416 59.9296 123.839 60.2709L123.282 61.0452C122.951 60.7953 122.563 60.6229 122.13 60.6229C121.605 60.6229 121.161 60.8727 121.161 61.295C121.161 61.6611 121.584 61.7842 122.119 61.9215C122.965 62.1397 124.071 62.5127 124.071 63.6178C124.071 64.6314 123.123 65.2578 122.073 65.2578C121.217 65.2578 120.498 64.9938 119.906 64.5187L120.467 63.7198V63.7269Z" fill="white"/>
<path d="M126.138 57.1738C126.54 57.1738 126.857 57.4941 126.857 57.8918C126.857 58.2894 126.536 58.5991 126.138 58.5991C125.74 58.5991 125.43 58.293 125.43 57.8918C125.43 57.4906 125.74 57.1738 126.138 57.1738ZM125.606 59.7957H126.691V65.1521H125.606V59.7957Z" fill="white"/>
<path d="M132.546 64.6597C132.112 65.0468 131.531 65.265 130.893 65.265C130.414 65.265 129.913 65.1278 129.547 64.9131C128.736 64.4345 128.18 63.5476 128.18 62.4742C128.18 61.4008 128.751 60.5034 129.561 60.0248C129.927 59.8066 130.371 59.6834 130.872 59.6834C131.453 59.6834 132.035 59.8664 132.514 60.2641V57.0615H133.599V65.1524H132.549V64.6597H132.546ZM132.51 61.4712C132.179 61.0383 131.633 60.7075 130.981 60.7075C129.942 60.7075 129.258 61.5381 129.258 62.4742C129.258 63.4104 129.998 64.2409 131.037 64.2409C131.587 64.2409 132.144 63.9664 132.51 63.4772V61.4712Z" fill="white"/>
<path d="M136.068 57.1738C136.466 57.1738 136.786 57.4941 136.786 57.8918C136.786 58.2894 136.466 58.5991 136.068 58.5991C135.669 58.5991 135.359 58.293 135.359 57.8918C135.359 57.4906 135.669 57.1738 136.068 57.1738ZM135.532 59.7957H136.617V65.1521H135.532V59.7957Z" fill="white"/>
<path d="M140.807 65.2652C140.328 65.2652 139.827 65.128 139.461 64.9133C138.65 64.4347 138.094 63.5478 138.094 62.4744C138.094 61.401 138.665 60.5036 139.475 60.025C139.842 59.8068 140.285 59.6836 140.786 59.6836C141.392 59.6836 141.973 59.8666 142.463 60.2889V59.7997H143.513V64.9274C143.513 65.7227 143.411 66.2612 143.193 66.6835C142.759 67.514 141.938 68.0068 140.877 68.0068C139.486 68.0068 138.608 67.2994 138.266 66.7644L139.063 66.0254C139.45 66.5392 139.951 66.9826 140.832 66.9826C141.413 66.9826 141.871 66.7644 142.132 66.3668C142.326 66.0711 142.428 65.6594 142.428 64.9872V64.6916C141.991 65.0646 141.445 65.2723 140.807 65.2723V65.2652ZM142.428 61.4714C142.097 61.0385 141.55 60.7077 140.899 60.7077C139.859 60.7077 139.176 61.5383 139.176 62.4744C139.176 63.4105 139.915 64.2411 140.955 64.2411C141.505 64.2411 142.061 63.9666 142.428 63.4774V61.4714Z" fill="white"/>
<path d="M146.05 62.6996C146.106 63.6006 146.846 64.3185 147.784 64.3185C148.58 64.3185 149.017 63.9314 149.324 63.59L150.032 64.2622C149.63 64.776 148.869 65.2652 147.773 65.2652C146.209 65.2652 145 64.0792 145 62.4744C145 60.8696 146.096 59.6836 147.611 59.6836C149.126 59.6836 150.19 60.8907 150.19 62.4744C150.19 62.5202 150.19 62.6011 150.18 62.7032H146.05V62.6996ZM146.142 61.7881H149.063C148.904 61.1054 148.288 60.6268 147.65 60.6268C146.952 60.6268 146.325 61.0948 146.142 61.7881Z" fill="white"/>
</g>
</g>
<defs>
<clipPath id="clip0_486_864">
<rect width="222" height="68" fill="white"/>
</clipPath>
</defs>
</svg>
