<svg width="210" height="64" viewBox="0 0 210 64" fill="none" xmlns="http://www.w3.org/2000/svg">
<path d="M62.8267 54.0632L57.0702 48.3066L55.4245 49.9523C49.8051 55.5684 42.336 58.6624 34.392 58.6624C26.4479 58.6624 18.9788 55.5684 13.3594 49.9523C7.74338 44.3329 4.64937 36.8638 4.64937 28.9164C4.64937 20.969 7.74338 13.5032 13.3594 7.88386L15.0051 6.23819L9.44592 0.682354C9.00439 0.240831 8.42239 0 7.80024 0C7.17809 0 6.59609 0.240831 6.15456 0.682354C5.71639 1.12053 5.47221 1.70588 5.47221 2.32469C5.47221 2.94349 5.71304 3.52884 6.15456 3.97036L8.48259 6.29839C5.83011 9.32885 3.75295 12.7473 2.31131 16.4735C0.779355 20.4305 0 24.6183 0 28.9164C0 38.1048 3.57901 46.7412 10.0748 53.237C16.5705 59.7327 25.207 63.3117 34.3953 63.3117C38.6968 63.3117 42.8846 62.5324 46.8416 61.0004C50.5678 59.5554 53.9862 57.4816 57.0167 54.8291L59.5387 57.3512C60.4452 58.2576 61.9203 58.2576 62.8267 57.3512C63.7298 56.4447 63.7332 54.9696 62.8267 54.0632Z" fill="white"/>
<path d="M10.6172 28.822C10.6172 32.023 11.246 35.1304 12.4836 38.0538C13.6777 40.8803 15.387 43.4157 17.5645 45.5932C19.742 47.7707 22.2774 49.4799 25.1038 50.674C28.0306 51.9117 31.1346 52.5405 34.3357 52.5405C37.5367 52.5405 40.6441 51.9117 43.5675 50.674C46.3906 49.4799 48.9293 47.7707 51.1069 45.5932C53.2844 43.4157 54.9936 40.8803 56.1877 38.0538C57.4253 35.1271 58.0542 32.023 58.0542 28.822C58.0542 25.621 57.4253 22.5136 56.1877 19.5902C54.9936 16.7671 53.2844 14.2283 51.1069 12.0508C48.9293 9.8733 46.3939 8.16407 43.5675 6.96995C40.6408 5.73235 37.5367 5.10352 34.3357 5.10352C31.1346 5.10352 28.0272 5.73235 25.1038 6.96995C22.2774 8.16407 19.742 9.8733 17.5645 12.0508C15.387 14.2283 13.6777 16.7637 12.4836 19.5902C11.246 22.5136 10.6172 25.621 10.6172 28.822ZM20.9829 15.4659C24.5486 11.897 29.2916 9.93351 34.339 9.93351C39.3864 9.93351 44.1261 11.897 47.6951 15.4659C51.2641 19.0349 53.2275 23.7779 53.2275 28.822C53.2275 33.8661 51.2641 38.6091 47.6951 42.1781C44.1261 45.7471 39.3831 47.7105 34.339 47.7105C29.295 47.7105 24.5519 45.7471 20.9829 42.1781C17.414 38.6091 15.4505 33.8661 15.4505 28.822C15.4505 23.7779 17.414 19.0316 20.9829 15.4659Z" fill="white"/>
<path d="M79.2074 15.6801C79.2074 16.6769 79.8128 17.0883 80.7227 17.0883C81.6325 17.0883 82.0439 16.6769 82.0439 15.6801V5.75926C82.0439 5.30435 82.2178 5.11035 82.6727 5.11035H85.0108C85.4657 5.11035 85.6162 5.30435 85.6162 5.75926V16.309C85.6162 18.1721 84.5325 20.0118 80.7193 20.0118C76.9062 20.0118 75.6953 18.1687 75.6953 16.309V14.8807C75.6953 14.4258 75.8692 14.2318 76.3242 14.2318H78.5987C79.0536 14.2318 79.2041 14.4258 79.2041 14.8807V15.6801H79.2074Z" fill="white"/>
<path d="M92.4895 10.0708C92.6634 10.5692 92.8373 11.285 92.8574 11.372C92.8775 11.285 93.0949 10.5056 93.2922 10.0708L95.1118 5.75926C95.2624 5.39132 95.4162 5.11035 95.8711 5.11035H98.1657C98.6206 5.11035 98.838 5.34784 98.6407 5.75926L94.6536 14.379V19.1889C94.6536 19.6438 94.5031 19.8378 94.0482 19.8378H91.7101C91.2552 19.8378 91.0813 19.6438 91.0813 19.1889V14.8138L87.0741 5.75926C86.9002 5.36791 87.0741 5.11035 87.529 5.11035H90.1715C90.6264 5.11035 90.8204 5.37125 90.9508 5.75926L92.4895 10.0708Z" fill="white"/>
<path d="M106.523 9.11761C106.523 8.12084 105.831 7.75291 104.834 7.75291C103.837 7.75291 103.121 8.12084 103.121 9.11761V9.33503C103.121 9.92038 103.576 10.1813 103.814 10.2682L107.453 11.5025C109.055 12.0444 110.159 13.1716 110.159 14.7738V16.3124C110.159 18.1755 108.838 20.0152 104.764 20.0152C100.689 20.0152 99.3281 18.1755 99.3281 16.3124V14.8608C99.3281 14.4059 99.5021 14.2119 99.957 14.2119H102.211C102.666 14.2119 102.817 14.4059 102.817 14.8608V15.8341C102.817 16.8309 103.663 17.1988 104.723 17.1988C105.784 17.1988 106.65 16.8309 106.65 15.8341V15.3993C106.65 14.6199 105.61 14.252 104.787 13.9476L101.67 12.7769C100.566 12.3655 99.6559 11.1513 99.6559 9.89697V8.6393C99.6559 6.7762 100.783 4.93652 104.79 4.93652C108.797 4.93652 110.012 6.7762 110.012 8.6393V9.44207C110.012 9.89697 109.838 10.091 109.383 10.091H107.128C106.673 10.091 106.523 9.89697 106.523 9.44207V9.11761Z" fill="white"/>
<path d="M123.683 19.1889C123.9 19.5134 123.813 19.8378 123.358 19.8378H120.368C119.913 19.8378 119.676 19.5134 119.458 19.1889L116.036 13.8806H115.799V19.1889C115.799 19.6438 115.648 19.8378 115.193 19.8378H112.855C112.4 19.8378 112.227 19.6438 112.227 19.1889V5.75926C112.227 5.30435 112.4 5.11035 112.855 5.11035H115.193C115.648 5.11035 115.799 5.30435 115.799 5.75926V11.2816H116.016L119.331 5.75926C119.548 5.41139 119.893 5.11035 120.348 5.11035H122.84C123.295 5.11035 123.358 5.41473 123.144 5.75926L119.03 12.3453L123.683 19.1889Z" fill="white"/>
<path d="M85.3419 32.7297L87.4659 38.0581C87.6164 38.4494 87.3354 38.707 86.8605 38.707H84.5224C84.111 38.707 84.024 38.3591 83.8936 38.0581L81.987 33.2715H80.3614V38.0581C80.3614 38.513 80.2109 38.707 79.756 38.707H77.4179C76.963 38.707 76.7891 38.513 76.7891 38.0581V24.6284C76.7891 24.1735 76.963 23.9795 77.4179 23.9795H82.0974C86.1681 23.9795 87.5997 25.8192 87.5997 27.6823V29.5654C87.593 30.7997 86.9642 32.0339 85.3419 32.7297ZM80.358 26.9029V30.3481H82.0907C83.151 30.3481 84.0608 29.9367 84.0608 28.9399V28.3111C84.0608 27.3143 83.151 26.9029 82.0907 26.9029H80.358Z" fill="white"/>
<path d="M90.496 38.707C90.0411 38.707 89.8672 38.513 89.8672 38.0581V24.6284C89.8672 24.1735 90.0411 23.9795 90.496 23.9795H97.9049C98.3598 23.9795 98.5538 24.13 98.5538 24.5849V26.2741C98.5538 26.729 98.3598 26.9029 97.9049 26.9029H93.4428V29.7193H97.557C98.0119 29.7193 98.2059 29.8698 98.2059 30.3247V31.9068C98.2059 32.3617 98.0119 32.5357 97.557 32.5357H93.4428V35.7835H98.1223C98.5772 35.7835 98.7712 35.9341 98.7712 36.389V38.0781C98.7712 38.533 98.5772 38.707 98.1223 38.707H90.496Z" fill="white"/>
<path d="M103.251 34.5493C103.251 35.5461 103.856 35.9575 104.766 35.9575C105.676 35.9575 106.087 35.5461 106.087 34.5493V24.6284C106.087 24.1735 106.261 23.9795 106.716 23.9795H109.054C109.509 23.9795 109.66 24.1735 109.66 24.6284V35.1781C109.66 37.0412 108.576 38.8809 104.766 38.8809C100.956 38.8809 99.7422 37.0412 99.7422 35.1781V33.7499C99.7422 33.295 99.9161 33.101 100.371 33.101H102.646C103.1 33.101 103.251 33.295 103.251 33.7499V34.5493Z" fill="white"/>
<path d="M118.914 27.9828C118.914 26.9861 118.221 26.6181 117.224 26.6181C116.228 26.6181 115.512 26.9861 115.512 27.9828V28.2003C115.512 28.7856 115.967 29.0465 116.204 29.1301L119.843 30.3644C121.446 30.9063 122.549 32.0335 122.549 33.6357V35.1743C122.549 37.0374 121.228 38.8771 117.154 38.8771C113.08 38.8771 111.719 37.0374 111.719 35.1743V33.7226C111.719 33.2677 111.893 33.0737 112.348 33.0737H114.599C115.054 33.0737 115.204 33.2677 115.204 33.7226V34.696C115.204 35.6928 116.05 36.0607 117.111 36.0607C118.171 36.0607 119.037 35.6928 119.037 34.696V34.2645C119.037 33.4852 117.997 33.1172 117.174 32.8128L114.053 31.6421C112.95 31.2307 112.04 30.0165 112.04 28.7622V27.5045C112.04 25.6414 113.167 23.8018 117.174 23.8018C121.181 23.8018 122.396 25.6414 122.396 27.5045V28.3073C122.396 28.7622 122.222 28.9562 121.767 28.9562H119.512C119.057 28.9562 118.907 28.7622 118.907 28.3073V27.9828H118.914Z" fill="white"/>
<path d="M125.238 38.707C124.783 38.707 124.609 38.513 124.609 38.0581V24.6284C124.609 24.1735 124.783 23.9795 125.238 23.9795H132.647C133.102 23.9795 133.296 24.13 133.296 24.5849V26.2741C133.296 26.729 133.102 26.9029 132.647 26.9029H128.185V29.7193H132.299C132.754 29.7193 132.948 29.8698 132.948 30.3247V31.9068C132.948 32.3617 132.754 32.5357 132.299 32.5357H128.185V35.7835H132.865C133.319 35.7835 133.513 35.9341 133.513 36.389V38.0781C133.513 38.533 133.319 38.707 132.865 38.707H125.238Z" fill="white"/>
<path d="M136.199 38.707C135.744 38.707 135.57 38.513 135.57 38.0581V24.6284C135.57 24.1735 135.744 23.9795 136.199 23.9795H140.27C144.341 23.9795 145.772 25.4947 145.772 27.3578V28.5486C145.772 29.5888 145.274 30.3883 144.3 30.9535C145.642 31.4954 146.488 32.4052 146.488 33.5525V35.1547C146.488 37.0178 145.06 38.707 140.986 38.707H136.199ZM139.143 26.7925V29.9133H140.27C141.33 29.9133 142.24 29.5019 142.24 28.485V27.9231C142.24 26.9263 141.33 26.7959 140.27 26.7959H139.143V26.7925ZM139.143 32.5557V35.8906H140.982C142.043 35.8906 142.952 35.4992 142.952 34.5025V33.8101C142.952 32.9872 142.043 32.5557 140.982 32.5557H139.143Z" fill="white"/>
<path d="M152.013 34.5493C152.013 35.5461 152.9 35.9575 153.963 35.9575C155.027 35.9575 155.933 35.5461 155.933 34.5493V24.6284C155.933 24.1735 156.107 23.9795 156.562 23.9795H158.9C159.355 23.9795 159.506 24.1735 159.506 24.6284V35.1781C159.506 37.0412 158.034 38.8809 153.96 38.8809C149.886 38.8809 148.438 37.0412 148.438 35.1781V24.6284C148.438 24.1735 148.611 23.9795 149.066 23.9795H151.408C151.863 23.9795 152.013 24.1735 152.013 24.6284V34.5493Z" fill="white"/>
<path d="M170.548 32.7297L172.672 38.0581C172.823 38.4494 172.542 38.707 172.067 38.707H169.729C169.317 38.707 169.23 38.3591 169.1 38.0581L167.193 33.2715H165.568V38.0581C165.568 38.513 165.417 38.707 164.962 38.707H162.621C162.166 38.707 161.992 38.513 161.992 38.0581V24.6284C161.992 24.1735 162.166 23.9795 162.621 23.9795H167.3C171.371 23.9795 172.803 25.8192 172.803 27.6823V29.5654C172.803 30.7997 172.174 32.0339 170.548 32.7297ZM165.568 26.9029V30.3481H167.3C168.361 30.3481 169.271 29.9367 169.271 28.9399V28.3111C169.271 27.3143 168.361 26.9029 167.3 26.9029H165.568Z" fill="white"/>
<path d="M175.707 38.707C175.252 38.707 175.078 38.513 175.078 38.0581V24.6284C175.078 24.1735 175.252 23.9795 175.707 23.9795H183.116C183.571 23.9795 183.765 24.13 183.765 24.5849V26.2741C183.765 26.729 183.571 26.9029 183.116 26.9029H178.654V29.7193H182.768C183.223 29.7193 183.417 29.8698 183.417 30.3247V31.9068C183.417 32.3617 183.223 32.5357 182.768 32.5357H178.654V35.7835H183.333C183.788 35.7835 183.982 35.9341 183.982 36.389V38.0781C183.982 38.533 183.788 38.707 183.333 38.707H175.707Z" fill="white"/>
<path d="M192.843 24.6284L196.763 38.0581C196.894 38.4695 196.743 38.707 196.288 38.707H193.883C193.428 38.707 193.234 38.4695 193.124 38.0581L192.562 35.9775H188.966L188.404 38.0581C188.294 38.4695 188.1 38.707 187.645 38.707H185.458C185.003 38.707 184.852 38.4695 184.983 38.0581L188.903 24.6284C189.033 24.1969 189.251 23.9795 189.706 23.9795H192.044C192.495 23.9795 192.713 24.1936 192.843 24.6284ZM191.478 31.9905C191.131 30.6692 190.829 27.6589 190.806 27.4648C190.763 27.7692 190.415 30.7361 190.07 31.9905L189.746 33.1612H191.783L191.478 31.9905Z" fill="white"/>
<path d="M201.552 34.5493C201.552 35.5461 202.442 35.9575 203.502 35.9575C204.563 35.9575 205.472 35.5461 205.472 34.5493V24.6284C205.472 24.1735 205.646 23.9795 206.101 23.9795H208.439C208.894 23.9795 209.045 24.1735 209.045 24.6284V35.1781C209.045 37.0412 207.573 38.8809 203.499 38.8809C199.425 38.8809 197.977 37.0412 197.977 35.1781V24.6284C197.977 24.1735 198.15 23.9795 198.605 23.9795H200.947C201.402 23.9795 201.552 24.1735 201.552 24.6284V34.5493Z" fill="white"/>
<path d="M85.2636 58.6825C85.2636 58.9267 85.1766 59.0438 84.9157 59.0438H83.7182C83.4573 59.0438 83.3704 58.9267 83.3704 58.6825V53.1969C83.357 53.2404 83.0961 54.1201 82.9523 54.5115L81.8551 57.1974C81.7548 57.4282 81.6243 57.5586 81.3802 57.5586H80.3566C80.1125 57.5586 79.982 57.4148 79.895 57.1974L78.6675 54.294C78.5236 53.9897 78.3497 53.3274 78.3363 53.227V58.6859C78.3363 58.93 78.2494 59.0471 77.9885 59.0471H76.8479C76.587 59.0471 76.5 58.93 76.5 58.6859V49.5912C76.5 49.3436 76.587 49.2299 76.8479 49.2299H77.9885C78.1758 49.2299 78.2494 49.3001 78.3062 49.4306L80.5138 54.4713C80.6878 54.8627 80.8751 55.4815 80.8751 55.4815C80.8751 55.4815 81.0624 54.9195 81.2497 54.4847L83.3871 49.4005C83.444 49.27 83.5476 49.2266 83.7182 49.2266H84.9157C85.1766 49.2266 85.2636 49.3403 85.2636 49.5878V58.6825Z" fill="white"/>
<path d="M97.212 49.2227C97.4729 49.2227 97.5733 49.3096 97.5733 49.5705V50.4502C97.5733 50.7111 97.4729 50.7981 97.212 50.7981H93.8772V53.1964H96.9679C97.2288 53.1964 97.3425 53.2833 97.3425 53.5442V54.3671C97.3425 54.628 97.2254 54.7283 96.9679 54.7283H93.8772V57.4711H97.3726C97.6168 57.4711 97.7338 57.5581 97.7338 57.8022V58.6987C97.7338 58.9429 97.6168 59.0465 97.3726 59.0465H92.3921C92.1479 59.0465 92.0308 58.9462 92.0308 58.6853V56.9225H89.3884L88.3649 58.6853C88.2645 58.8592 88.1474 59.0465 87.9467 59.0465H86.7627C86.5185 59.0465 86.3713 58.9027 86.5018 58.6853L91.9171 49.5739C91.9873 49.4601 92.1345 49.226 92.4222 49.226H97.212V49.2227ZM90.3116 55.3739H92.0308V52.3267C91.8569 52.6879 91.683 53.0191 91.5391 53.2633L90.3116 55.3739Z" fill="white"/>
<path d="M101.274 55.3042V58.6691C101.274 58.93 101.187 59.0438 100.926 59.0438H99.6682C99.4073 59.0438 99.3203 58.9267 99.3203 58.6691V49.6012C99.3203 49.3403 99.4073 49.2266 99.6682 49.2266H102.702C105.314 49.2266 106.197 50.3672 106.197 51.5814V52.9527C106.197 53.8057 105.766 54.6118 104.609 55.0333L106.167 58.6725C106.268 58.9033 106.094 59.0471 105.836 59.0471H104.565C104.364 59.0471 104.304 58.9033 104.204 58.6725L102.789 55.3075H101.274V55.3042ZM101.274 50.8421V53.6853H102.702C103.669 53.6853 104.261 53.324 104.261 52.6015V51.9225C104.261 51.2 103.669 50.8388 102.702 50.8388H101.274V50.8421Z" fill="white"/>
<path d="M115.21 58.6825C115.341 58.8564 115.284 59.0438 115.023 59.0438H113.421C113.177 59.0438 113.03 58.8564 112.902 58.6825L110.186 54.8995H109.942V58.6825C109.942 58.9267 109.855 59.0438 109.594 59.0438H108.34C108.079 59.0438 107.992 58.9267 107.992 58.6825V49.5878C107.992 49.3403 108.079 49.2266 108.34 49.2266H109.594C109.855 49.2266 109.942 49.3403 109.942 49.5878V53.4712H110.173L112.742 49.5878C112.872 49.3838 113.06 49.2266 113.321 49.2266H114.662C114.923 49.2266 114.966 49.4005 114.836 49.5878L111.819 54.0499L115.21 58.6825Z" fill="white"/>
<path d="M121.579 59.0432C121.318 59.0432 121.204 58.9261 121.131 58.682L118.431 49.5839C118.358 49.3531 118.445 49.2227 118.706 49.2227H120.077C120.321 49.2227 120.425 49.3531 120.495 49.5839L121.897 54.4942C122.114 55.2735 122.245 56.5881 122.245 56.5881C122.245 56.5881 122.418 55.2735 122.636 54.5076L124.037 49.5839C124.111 49.3531 124.211 49.2227 124.469 49.2227H125.727C125.971 49.2227 126.058 49.3531 125.987 49.5839L123.302 58.682C123.228 58.9261 123.101 59.0432 122.84 59.0432H121.579Z" fill="white"/>
<path d="M127.559 59.0438C127.298 59.0438 127.211 58.9267 127.211 58.6691V49.6012C127.211 49.3403 127.298 49.2266 127.559 49.2266H132.496C132.74 49.2266 132.857 49.3135 132.857 49.5744V50.4842C132.857 50.7451 132.74 50.8455 132.496 50.8455H129.161V53.1835H132.252C132.513 53.1835 132.626 53.2705 132.626 53.5314V54.3977C132.626 54.6419 132.513 54.7456 132.252 54.7456H129.161V57.4315H132.64C132.901 57.4315 133.001 57.5185 133.001 57.7794V58.6892C133.001 58.9501 132.901 59.0504 132.64 59.0504H127.559V59.0438Z" fill="white"/>
<path d="M136.555 55.3042V58.6691C136.555 58.93 136.468 59.0438 136.207 59.0438H134.949C134.689 59.0438 134.602 58.9267 134.602 58.6691V49.6012C134.602 49.3403 134.689 49.2266 134.949 49.2266H137.98C140.592 49.2266 141.475 50.3672 141.475 51.5814V52.9527C141.475 53.8057 141.044 54.6118 139.886 55.0333L141.445 58.6725C141.546 58.9033 141.372 59.0471 141.114 59.0471H139.843C139.642 59.0471 139.582 58.9033 139.482 58.6725L138.067 55.3075H136.555V55.3042ZM136.555 50.8421V53.6853H137.983C138.95 53.6853 139.542 53.324 139.542 52.6015V51.9225C139.542 51.2 138.95 50.8388 137.983 50.8388H136.555V50.8421Z" fill="white"/>
<path d="M143.57 59.0438C143.339 59.0438 143.266 58.9133 143.266 58.6691V49.6012C143.266 49.3403 143.353 49.2266 143.613 49.2266H146.761C149.373 49.2266 150.283 50.3672 150.283 51.5814V56.6923C150.283 57.9065 149.373 59.0471 146.761 59.0471H143.57V59.0438ZM145.219 50.8421V57.4248H146.764C147.748 57.4248 148.34 57.0636 148.34 56.3411V51.9225C148.34 51.2 147.748 50.8388 146.764 50.8388H145.219V50.8421Z" fill="white"/>
<path d="M152.496 59.0438C152.235 59.0438 152.148 58.9267 152.148 58.6691V49.6012C152.148 49.3403 152.235 49.2266 152.496 49.2266H157.433C157.678 49.2266 157.795 49.3135 157.795 49.5744V50.4842C157.795 50.7451 157.678 50.8455 157.433 50.8455H154.099V53.1835H157.189C157.45 53.1835 157.564 53.2705 157.564 53.5314V54.3977C157.564 54.6419 157.45 54.7456 157.189 54.7456H154.099V57.4315H157.577C157.838 57.4315 157.938 57.5185 157.938 57.7794V58.6892C157.938 58.9501 157.838 59.0504 157.577 59.0504H152.496V59.0438Z" fill="white"/>
<path d="M166.56 58.6824C166.56 58.9265 166.473 59.0436 166.212 59.0436H165.071C164.884 59.0436 164.811 59.0001 164.74 58.8697L161.954 54.0899C161.563 53.441 161.392 52.9626 161.375 52.9192V58.679C161.375 58.9232 161.288 59.0403 161.028 59.0403H159.887C159.626 59.0403 159.539 58.9232 159.539 58.679V49.5843C159.539 49.3368 159.626 49.2231 159.887 49.2231H161.028C161.185 49.2231 161.272 49.2666 161.332 49.3669L164.235 54.3474C164.479 54.7655 164.727 55.3576 164.727 55.3576V49.581C164.727 49.3335 164.814 49.2197 165.075 49.2197H166.215C166.476 49.2197 166.563 49.3335 166.563 49.581V58.6824H166.56Z" fill="white"/>
</svg>
